<?xml version="1.0" encoding="UTF-8" standalone="no"?>
<!-- Created with Inkscape (http://www.inkscape.org/) -->

<svg
   xmlns:dc="http://purl.org/dc/elements/1.1/"
   xmlns:cc="http://creativecommons.org/ns#"
   xmlns:rdf="http://www.w3.org/1999/02/22-rdf-syntax-ns#"
   xmlns:svg="http://www.w3.org/2000/svg"
   xmlns="http://www.w3.org/2000/svg"
   xmlns:sodipodi="http://sodipodi.sourceforge.net/DTD/sodipodi-0.dtd"
   xmlns:inkscape="http://www.inkscape.org/namespaces/inkscape"
   width="210mm"
   height="297mm"
   viewBox="0 0 210 297"
   version="1.1"
   id="svg8"
   inkscape:version="0.92.5 (2060ec1f9f, 2020-04-08)"
   sodipodi:docname="icone_fauteuil.svg">
  <defs
     id="defs2" />
  <sodipodi:namedview
     id="base"
     pagecolor="#ffffff"
     bordercolor="#666666"
     borderopacity="1.0"
     inkscape:pageopacity="0.0"
     inkscape:pageshadow="2"
     inkscape:zoom="0.35"
     inkscape:cx="-70"
     inkscape:cy="560"
     inkscape:document-units="mm"
     inkscape:current-layer="layer1"
     showgrid="false"
     inkscape:window-width="1920"
     inkscape:window-height="991"
     inkscape:window-x="-9"
     inkscape:window-y="-9"
     inkscape:window-maximized="1" />
  <metadata
     id="metadata5">
    <rdf:RDF>
      <cc:Work
         rdf:about="">
        <dc:format>image/svg+xml</dc:format>
        <dc:type
           rdf:resource="http://purl.org/dc/dcmitype/StillImage" />
        <dc:title></dc:title>
      </cc:Work>
    </rdf:RDF>
  </metadata>
  <g
     inkscape:label="Calque 1"
     inkscape:groupmode="layer"
     id="layer1">
    <path
       style="fill:#000000;stroke-width:0.91906196"
       d="m 71.905669,175.64821 c -0.78362,-0.71319 -1.19824,-3.91213 -1.19824,-9.24478 v -8.15423 h -4.81681 c -3.92455,0 -4.82685,-0.28423 -4.87101,-1.5344 -0.0298,-0.84391 -0.83088,-10.2147 -1.78015,-20.82396 -1.8885,-21.10628 -1.5968,-23.23515 3.18364,-23.23515 3.4551,0 4.54928,1.91226 6.40397,11.19194 1.76551,8.83348 1.71073,9.85122 -0.53027,9.85122 -2.42309,0 -4.3329,3.72938 -4.3329,8.46104 0,3.88586 0.37699,4.83355 2.53832,6.38089 2.46356,1.76371 3.58301,1.81724 38.007501,1.81724 23.94284,0 36.23204,-0.31635 37.81668,-0.97349 2.81876,-1.1689 4.4867,-4.20089 4.4867,-8.15591 0,-3.14176 -3.12848,-7.52977 -5.36842,-7.52977 -0.75632,0 -1.37512,-0.63393 -1.37512,-1.40872 0,-3.01036 3.20925,-17.50081 4.10577,-18.53844 0.52083,-0.6028 2.14134,-1.096 3.60113,-1.096 5.08747,0 5.17898,0.67116 3.28527,24.09576 l -1.73795,21.49775 h -5.07509 -5.07509 l -0.27454,8.98718 -0.27455,8.98719 -4.71037,0.27223 c -2.5907,0.14973 -5.19178,-0.15818 -5.78018,-0.68424 -0.58839,-0.52607 -1.96477,-4.59417 -3.05862,-9.04022 l -1.98882,-8.08374 -17.8089,-0.2379 -17.808901,-0.2379 -2.35962,9.00588 -2.35963,9.00589 -4.82278,0.2576 c -2.91873,0.1559 -5.29585,-0.17295 -6.02102,-0.83296 z m -1.92076,-30.25487 c -0.67656,-0.24847 -1.2042,-1.95158 -1.2042,-3.88692 v -3.44467 l 36.366951,0.22975 36.36694,0.22974 0.31045,2.46422 c 0.63787,5.06307 1.14122,4.99488 -36.31367,4.91934 -18.877251,-0.0381 -34.864161,-0.26823 -35.526471,-0.51146 z m 5.23817,-14.54409 c -0.28053,-1.08503 -1.04042,-5.12927 -1.68865,-8.98718 -1.37917,-8.20811 -2.99069,-11.54276 -6.22674,-12.88471 -2.41562,-1.00173 -2.47364,-2.21794 -0.35564,-7.45501 1.34114,-3.31617 7.76165,-9.07001 12.8462,-11.51234 4.84021,-2.32496 5.03496,-2.34308 25.174811,-2.34308 h 20.29686 l 5.67255,2.6395 c 6.30809,2.93522 11.28869,8.09604 13.08781,13.56139 1.08964,3.3101 1.02105,3.50386 -2.23749,6.32053 -3.13369,2.70874 -3.48303,3.57449 -5.15278,12.76972 l -1.79118,9.86398 H 105.29098 75.733119 Z"
       id="path826"
       inkscape:connector-curvature="0" />
  </g>
</svg>
